# xmcd
#
# Track frame offsets:
#	151
#	15762
#	27442
#	43801
#	58725
#	76142
#	90614
#	108196
#	121904
#	133087
#	151014
#	165170
#	179001
#	194068
#	208709
#
# Disc length: 3020 seconds
#
# Revision: 0
# Processed by: cddbd v1.5.1PL0 Copyright (c) Steve Scherf et al.
# Submitted via: dBpowerAMP V4.0
#
DISCID=bc0bca0f
DTITLE=George Hamilton IV - Hamilton's other country
DYEAR=2004
DGENRE=Country
TTITLE0=Rose of Allendale
TTITLE1=Come by the hills
TTITLE2=Dumbarton's Drums
TTITLE3=Wallace(Knight of Elderslie)
TTITLE4=Loch Lomond
TTITLE5=Flower of Scotland
TTITLE6=Farwell to Nova Scotia
TTITLE7=Wild mountian time
TTITLE8=Maids of New England
TTITLE9=Culloden's harvest
TTITLE10=Coulter's candy
TTITLE11=Amazing Grace
TTITLE12=Livingstone(Lad from Blantyre Mill)
TTITLE13=Lament for Mary(Queen of Scots)
TTITLE14=Dark Loch na Gar
EXTD=
EXTT0=
EXTT1=
EXTT2=
EXTT3=
EXTT4=
EXTT5=
EXTT6=
EXTT7=
EXTT8=
EXTT9=
EXTT10=
EXTT11=
EXTT12=
EXTT13=
EXTT14=
PLAYORDER=
